<mxfile host="app.diagrams.net" modified="2023-11-29T13:32:58.481Z" agent="Mozilla/5.0 (X11; Linux x86_64) AppleWebKit/537.36 (KHTML, like Gecko) Chrome/108.0.0.0 YaBrowser/23.1.1.1038 (beta) Yowser/2.5 Safari/537.36" etag="m3HcSeyr_-7vYp0cxZ_i" version="22.1.4" type="github">
  <diagram id="-7LVy4mKygN9nHRtwqhl" name="Page-1">
    <mxGraphModel dx="1582" dy="1615" grid="1" gridSize="10" guides="1" tooltips="1" connect="1" arrows="1" fold="1" page="1" pageScale="1" pageWidth="827" pageHeight="1169" math="0" shadow="0">
      <root>
        <mxCell id="0" />
        <mxCell id="1" parent="0" />
        <mxCell id="0WyTZ84uX_8WJwjYoFbz-19" style="edgeStyle=orthogonalEdgeStyle;rounded=0;orthogonalLoop=1;jettySize=auto;html=1;exitX=1;exitY=0.25;exitDx=0;exitDy=0;entryX=0;entryY=0.5;entryDx=0;entryDy=0;" parent="1" source="0WyTZ84uX_8WJwjYoFbz-1" target="0WyTZ84uX_8WJwjYoFbz-2" edge="1">
          <mxGeometry relative="1" as="geometry" />
        </mxCell>
        <mxCell id="0WyTZ84uX_8WJwjYoFbz-21" style="edgeStyle=orthogonalEdgeStyle;rounded=0;orthogonalLoop=1;jettySize=auto;html=1;exitX=0.5;exitY=1;exitDx=0;exitDy=0;entryX=0.5;entryY=0;entryDx=0;entryDy=0;" parent="1" source="0WyTZ84uX_8WJwjYoFbz-1" target="0WyTZ84uX_8WJwjYoFbz-5" edge="1">
          <mxGeometry relative="1" as="geometry" />
        </mxCell>
        <mxCell id="0WyTZ84uX_8WJwjYoFbz-1" value="Module 1&lt;br&gt;(Pre-processing)" style="shape=process;whiteSpace=wrap;html=1;backgroundOutline=1;" parent="1" vertex="1">
          <mxGeometry x="120" y="100" width="160" height="50" as="geometry" />
        </mxCell>
        <mxCell id="0WyTZ84uX_8WJwjYoFbz-15" style="edgeStyle=orthogonalEdgeStyle;rounded=0;orthogonalLoop=1;jettySize=auto;html=1;exitX=0.5;exitY=1;exitDx=0;exitDy=0;entryX=0.5;entryY=0;entryDx=0;entryDy=0;" parent="1" source="0WyTZ84uX_8WJwjYoFbz-2" target="0WyTZ84uX_8WJwjYoFbz-3" edge="1">
          <mxGeometry relative="1" as="geometry" />
        </mxCell>
        <mxCell id="0WyTZ84uX_8WJwjYoFbz-2" value="Background Extraction" style="rounded=0;whiteSpace=wrap;html=1;" parent="1" vertex="1">
          <mxGeometry x="320" y="30" width="120" height="60" as="geometry" />
        </mxCell>
        <mxCell id="0WyTZ84uX_8WJwjYoFbz-16" style="edgeStyle=orthogonalEdgeStyle;rounded=0;orthogonalLoop=1;jettySize=auto;html=1;exitX=0.5;exitY=1;exitDx=0;exitDy=0;entryX=0.5;entryY=0;entryDx=0;entryDy=0;" parent="1" source="0WyTZ84uX_8WJwjYoFbz-3" target="0WyTZ84uX_8WJwjYoFbz-4" edge="1">
          <mxGeometry relative="1" as="geometry" />
        </mxCell>
        <mxCell id="0WyTZ84uX_8WJwjYoFbz-3" value="Hide Normalization" style="rounded=0;whiteSpace=wrap;html=1;" parent="1" vertex="1">
          <mxGeometry x="320" y="100" width="120" height="60" as="geometry" />
        </mxCell>
        <mxCell id="0WyTZ84uX_8WJwjYoFbz-20" style="edgeStyle=orthogonalEdgeStyle;rounded=0;orthogonalLoop=1;jettySize=auto;html=1;exitX=0;exitY=0.5;exitDx=0;exitDy=0;entryX=1;entryY=0.75;entryDx=0;entryDy=0;" parent="1" source="0WyTZ84uX_8WJwjYoFbz-4" target="0WyTZ84uX_8WJwjYoFbz-1" edge="1">
          <mxGeometry relative="1" as="geometry" />
        </mxCell>
        <mxCell id="0WyTZ84uX_8WJwjYoFbz-4" value="Decomposition" style="rounded=0;whiteSpace=wrap;html=1;" parent="1" vertex="1">
          <mxGeometry x="320" y="170" width="120" height="60" as="geometry" />
        </mxCell>
        <mxCell id="0WyTZ84uX_8WJwjYoFbz-22" style="edgeStyle=orthogonalEdgeStyle;rounded=0;orthogonalLoop=1;jettySize=auto;html=1;exitX=1;exitY=0.25;exitDx=0;exitDy=0;entryX=0;entryY=0.5;entryDx=0;entryDy=0;" parent="1" source="0WyTZ84uX_8WJwjYoFbz-5" target="0WyTZ84uX_8WJwjYoFbz-8" edge="1">
          <mxGeometry relative="1" as="geometry" />
        </mxCell>
        <mxCell id="0WyTZ84uX_8WJwjYoFbz-26" style="edgeStyle=orthogonalEdgeStyle;rounded=0;orthogonalLoop=1;jettySize=auto;html=1;exitX=0.5;exitY=1;exitDx=0;exitDy=0;entryX=0.5;entryY=0;entryDx=0;entryDy=0;" parent="1" source="0WyTZ84uX_8WJwjYoFbz-5" target="0WyTZ84uX_8WJwjYoFbz-6" edge="1">
          <mxGeometry relative="1" as="geometry" />
        </mxCell>
        <mxCell id="0WyTZ84uX_8WJwjYoFbz-5" value="Module 2&lt;br&gt;(Anomaly Detection)" style="shape=process;whiteSpace=wrap;html=1;backgroundOutline=1;" parent="1" vertex="1">
          <mxGeometry x="120" y="350" width="160" height="50" as="geometry" />
        </mxCell>
        <mxCell id="0WyTZ84uX_8WJwjYoFbz-24" style="edgeStyle=orthogonalEdgeStyle;rounded=0;orthogonalLoop=1;jettySize=auto;html=1;exitX=1;exitY=0.25;exitDx=0;exitDy=0;entryX=0;entryY=0.25;entryDx=0;entryDy=0;" parent="1" source="0WyTZ84uX_8WJwjYoFbz-6" target="0WyTZ84uX_8WJwjYoFbz-11" edge="1">
          <mxGeometry relative="1" as="geometry" />
        </mxCell>
        <mxCell id="0WyTZ84uX_8WJwjYoFbz-28" style="edgeStyle=orthogonalEdgeStyle;rounded=0;orthogonalLoop=1;jettySize=auto;html=1;exitX=0.5;exitY=1;exitDx=0;exitDy=0;" parent="1" source="0WyTZ84uX_8WJwjYoFbz-6" target="0WyTZ84uX_8WJwjYoFbz-7" edge="1">
          <mxGeometry relative="1" as="geometry" />
        </mxCell>
        <mxCell id="0WyTZ84uX_8WJwjYoFbz-6" value="Module 3&lt;br&gt;(Voting)" style="shape=process;whiteSpace=wrap;html=1;backgroundOutline=1;" parent="1" vertex="1">
          <mxGeometry x="120" y="635" width="160" height="50" as="geometry" />
        </mxCell>
        <mxCell id="0WyTZ84uX_8WJwjYoFbz-31" style="edgeStyle=orthogonalEdgeStyle;rounded=0;orthogonalLoop=1;jettySize=auto;html=1;exitX=1;exitY=0.25;exitDx=0;exitDy=0;entryX=0;entryY=0.5;entryDx=0;entryDy=0;" parent="1" source="0WyTZ84uX_8WJwjYoFbz-7" target="0WyTZ84uX_8WJwjYoFbz-12" edge="1">
          <mxGeometry relative="1" as="geometry" />
        </mxCell>
        <mxCell id="0WyTZ84uX_8WJwjYoFbz-37" style="edgeStyle=orthogonalEdgeStyle;rounded=0;orthogonalLoop=1;jettySize=auto;html=1;exitX=0.5;exitY=1;exitDx=0;exitDy=0;entryX=0.5;entryY=0;entryDx=0;entryDy=0;" parent="1" source="0WyTZ84uX_8WJwjYoFbz-7" target="0WyTZ84uX_8WJwjYoFbz-36" edge="1">
          <mxGeometry relative="1" as="geometry" />
        </mxCell>
        <mxCell id="0WyTZ84uX_8WJwjYoFbz-7" value="Post-Processing" style="shape=process;whiteSpace=wrap;html=1;backgroundOutline=1;" parent="1" vertex="1">
          <mxGeometry x="120" y="835" width="160" height="50" as="geometry" />
        </mxCell>
        <mxCell id="0WyTZ84uX_8WJwjYoFbz-17" style="edgeStyle=orthogonalEdgeStyle;rounded=0;orthogonalLoop=1;jettySize=auto;html=1;exitX=0.5;exitY=1;exitDx=0;exitDy=0;entryX=0.5;entryY=0;entryDx=0;entryDy=0;" parent="1" source="0WyTZ84uX_8WJwjYoFbz-8" target="0WyTZ84uX_8WJwjYoFbz-9" edge="1">
          <mxGeometry relative="1" as="geometry" />
        </mxCell>
        <mxCell id="0WyTZ84uX_8WJwjYoFbz-8" value="U-Net&lt;br&gt;(optional)&lt;br&gt;GPU" style="rounded=0;whiteSpace=wrap;html=1;" parent="1" vertex="1">
          <mxGeometry x="320" y="280" width="120" height="60" as="geometry" />
        </mxCell>
        <mxCell id="0WyTZ84uX_8WJwjYoFbz-18" style="edgeStyle=orthogonalEdgeStyle;rounded=0;orthogonalLoop=1;jettySize=auto;html=1;exitX=0.5;exitY=1;exitDx=0;exitDy=0;entryX=0.5;entryY=0;entryDx=0;entryDy=0;" parent="1" source="0WyTZ84uX_8WJwjYoFbz-9" target="0WyTZ84uX_8WJwjYoFbz-10" edge="1">
          <mxGeometry relative="1" as="geometry" />
        </mxCell>
        <mxCell id="0WyTZ84uX_8WJwjYoFbz-9" value="MaskRCNN&lt;br&gt;(optional)&lt;br&gt;GPU" style="rounded=0;whiteSpace=wrap;html=1;" parent="1" vertex="1">
          <mxGeometry x="320" y="350" width="120" height="60" as="geometry" />
        </mxCell>
        <mxCell id="0WyTZ84uX_8WJwjYoFbz-23" style="edgeStyle=orthogonalEdgeStyle;rounded=0;orthogonalLoop=1;jettySize=auto;html=1;exitX=0;exitY=0.5;exitDx=0;exitDy=0;entryX=0.999;entryY=0.408;entryDx=0;entryDy=0;entryPerimeter=0;" parent="1" source="0WyTZ84uX_8WJwjYoFbz-10" target="0WyTZ84uX_8WJwjYoFbz-5" edge="1">
          <mxGeometry relative="1" as="geometry">
            <Array as="points">
              <mxPoint x="310" y="450" />
              <mxPoint x="310" y="370" />
            </Array>
          </mxGeometry>
        </mxCell>
        <mxCell id="0WyTZ84uX_8WJwjYoFbz-10" value="HRNet-OCR&lt;br&gt;(optional)&lt;br&gt;GPU" style="rounded=0;whiteSpace=wrap;html=1;" parent="1" vertex="1">
          <mxGeometry x="320" y="420" width="120" height="60" as="geometry" />
        </mxCell>
        <mxCell id="0WyTZ84uX_8WJwjYoFbz-25" style="edgeStyle=orthogonalEdgeStyle;rounded=0;orthogonalLoop=1;jettySize=auto;html=1;exitX=0;exitY=0.75;exitDx=0;exitDy=0;entryX=1;entryY=0.75;entryDx=0;entryDy=0;" parent="1" source="0WyTZ84uX_8WJwjYoFbz-11" target="0WyTZ84uX_8WJwjYoFbz-6" edge="1">
          <mxGeometry relative="1" as="geometry" />
        </mxCell>
        <mxCell id="0WyTZ84uX_8WJwjYoFbz-11" value="Votes Calculator&lt;br&gt;(only for CNNs)" style="rounded=0;whiteSpace=wrap;html=1;" parent="1" vertex="1">
          <mxGeometry x="320" y="630" width="120" height="60" as="geometry" />
        </mxCell>
        <mxCell id="0WyTZ84uX_8WJwjYoFbz-29" style="edgeStyle=orthogonalEdgeStyle;rounded=0;orthogonalLoop=1;jettySize=auto;html=1;exitX=0.5;exitY=1;exitDx=0;exitDy=0;dashed=1;dashPattern=1 4;" parent="1" source="0WyTZ84uX_8WJwjYoFbz-12" target="0WyTZ84uX_8WJwjYoFbz-13" edge="1">
          <mxGeometry relative="1" as="geometry" />
        </mxCell>
        <mxCell id="0WyTZ84uX_8WJwjYoFbz-12" value="Defects Classification&lt;br&gt;(yolo_v5)" style="rounded=0;whiteSpace=wrap;html=1;" parent="1" vertex="1">
          <mxGeometry x="320" y="755" width="120" height="60" as="geometry" />
        </mxCell>
        <mxCell id="0WyTZ84uX_8WJwjYoFbz-30" style="edgeStyle=orthogonalEdgeStyle;rounded=0;orthogonalLoop=1;jettySize=auto;html=1;exitX=0.5;exitY=1;exitDx=0;exitDy=0;dashed=1;dashPattern=1 4;" parent="1" source="0WyTZ84uX_8WJwjYoFbz-13" target="0WyTZ84uX_8WJwjYoFbz-14" edge="1">
          <mxGeometry relative="1" as="geometry" />
        </mxCell>
        <mxCell id="0WyTZ84uX_8WJwjYoFbz-13" value="Natural Zones Former&lt;br&gt;(optional)" style="rounded=0;whiteSpace=wrap;html=1;" parent="1" vertex="1">
          <mxGeometry x="320" y="835" width="120" height="60" as="geometry" />
        </mxCell>
        <mxCell id="0WyTZ84uX_8WJwjYoFbz-32" style="edgeStyle=orthogonalEdgeStyle;rounded=0;orthogonalLoop=1;jettySize=auto;html=1;exitX=0;exitY=0.5;exitDx=0;exitDy=0;entryX=1;entryY=0.75;entryDx=0;entryDy=0;" parent="1" source="0WyTZ84uX_8WJwjYoFbz-14" target="0WyTZ84uX_8WJwjYoFbz-7" edge="1">
          <mxGeometry relative="1" as="geometry" />
        </mxCell>
        <mxCell id="0WyTZ84uX_8WJwjYoFbz-14" value="MR Module&lt;br&gt;(optional)" style="rounded=0;whiteSpace=wrap;html=1;" parent="1" vertex="1">
          <mxGeometry x="320" y="915" width="120" height="60" as="geometry" />
        </mxCell>
        <mxCell id="0WyTZ84uX_8WJwjYoFbz-34" value="START" style="ellipse;whiteSpace=wrap;html=1;" parent="1" vertex="1">
          <mxGeometry x="150" y="-130" width="80" height="40" as="geometry" />
        </mxCell>
        <mxCell id="0WyTZ84uX_8WJwjYoFbz-36" value="FINISH" style="ellipse;whiteSpace=wrap;html=1;" parent="1" vertex="1">
          <mxGeometry x="160" y="1015" width="80" height="40" as="geometry" />
        </mxCell>
        <mxCell id="0WyTZ84uX_8WJwjYoFbz-38" value="sm_test/imgs_wo_background" style="text;html=1;align=left;verticalAlign=middle;resizable=0;points=[];autosize=1;strokeColor=none;fillColor=none;" parent="1" vertex="1">
          <mxGeometry x="450" y="30" width="190" height="30" as="geometry" />
        </mxCell>
        <mxCell id="0WyTZ84uX_8WJwjYoFbz-39" value="sm_test/mask_non_cropped" style="text;html=1;align=left;verticalAlign=middle;resizable=0;points=[];autosize=1;strokeColor=none;fillColor=none;" parent="1" vertex="1">
          <mxGeometry x="450" y="50" width="170" height="30" as="geometry" />
        </mxCell>
        <mxCell id="0WyTZ84uX_8WJwjYoFbz-40" value="sm_test/imgs_wo_background" style="text;html=1;align=left;verticalAlign=middle;resizable=0;points=[];autosize=1;strokeColor=none;fillColor=none;" parent="1" vertex="1">
          <mxGeometry x="450" y="115" width="190" height="30" as="geometry" />
        </mxCell>
        <mxCell id="0WyTZ84uX_8WJwjYoFbz-41" value="sm_test/mask_cropped_512" style="text;html=1;align=left;verticalAlign=middle;resizable=0;points=[];autosize=1;strokeColor=none;fillColor=none;" parent="1" vertex="1">
          <mxGeometry x="450" y="195" width="170" height="30" as="geometry" />
        </mxCell>
        <mxCell id="0WyTZ84uX_8WJwjYoFbz-42" value="sm_test/normalizedV3_512" style="text;html=1;align=left;verticalAlign=middle;resizable=0;points=[];autosize=1;strokeColor=none;fillColor=none;" parent="1" vertex="1">
          <mxGeometry x="450" y="175" width="170" height="30" as="geometry" />
        </mxCell>
        <mxCell id="0WyTZ84uX_8WJwjYoFbz-43" value="/opt/ml/checkpoints/hrnet_ocr" style="text;html=1;align=center;verticalAlign=middle;resizable=0;points=[];autosize=1;strokeColor=none;fillColor=none;" parent="1" vertex="1">
          <mxGeometry x="445" y="420" width="180" height="30" as="geometry" />
        </mxCell>
        <mxCell id="0WyTZ84uX_8WJwjYoFbz-44" value="/opt/ml/predictions/hides" style="text;whiteSpace=wrap;html=1;" parent="1" vertex="1">
          <mxGeometry x="455" y="440" width="160" height="40" as="geometry" />
        </mxCell>
        <mxCell id="0WyTZ84uX_8WJwjYoFbz-45" value="/opt/ml/checkpoints/psp" style="text;html=1;align=left;verticalAlign=middle;resizable=0;points=[];autosize=1;strokeColor=none;fillColor=none;" parent="1" vertex="1">
          <mxGeometry x="450" y="280" width="150" height="30" as="geometry" />
        </mxCell>
        <mxCell id="0WyTZ84uX_8WJwjYoFbz-46" value="/opt/ml/predictions/hides" style="text;whiteSpace=wrap;html=1;" parent="1" vertex="1">
          <mxGeometry x="450" y="300" width="160" height="40" as="geometry" />
        </mxCell>
        <mxCell id="0WyTZ84uX_8WJwjYoFbz-47" value="/opt/ml/checkpoints/mrcnn" style="text;html=1;align=left;verticalAlign=middle;resizable=0;points=[];autosize=1;strokeColor=none;fillColor=none;" parent="1" vertex="1">
          <mxGeometry x="450" y="350" width="160" height="30" as="geometry" />
        </mxCell>
        <mxCell id="0WyTZ84uX_8WJwjYoFbz-48" value="/opt/ml/predictions/hides" style="text;whiteSpace=wrap;html=1;" parent="1" vertex="1">
          <mxGeometry x="450" y="370" width="160" height="40" as="geometry" />
        </mxCell>
        <mxCell id="0WyTZ84uX_8WJwjYoFbz-50" value="sm_test/votes_&amp;lt;L_ID&amp;gt;_&amp;lt;model_type&amp;gt;.json" style="text;whiteSpace=wrap;html=1;" parent="1" vertex="1">
          <mxGeometry x="450" y="635" width="240" height="30" as="geometry" />
        </mxCell>
        <mxCell id="0WyTZ84uX_8WJwjYoFbz-51" value="sm_test/&amp;lt;L_ID&amp;gt;.json" style="text;whiteSpace=wrap;html=1;" parent="1" vertex="1">
          <mxGeometry x="275" y="1025" width="240" height="30" as="geometry" />
        </mxCell>
        <mxCell id="tQxgWubzFSV1c3uUG9aM-3" style="edgeStyle=orthogonalEdgeStyle;rounded=0;orthogonalLoop=1;jettySize=auto;html=1;exitX=0;exitY=0.5;exitDx=0;exitDy=0;entryX=1;entryY=0.75;entryDx=0;entryDy=0;dashed=1;startArrow=classic;startFill=1;" parent="1" source="tQxgWubzFSV1c3uUG9aM-1" target="0WyTZ84uX_8WJwjYoFbz-5" edge="1">
          <mxGeometry relative="1" as="geometry" />
        </mxCell>
        <mxCell id="tQxgWubzFSV1c3uUG9aM-1" value="CV&lt;br&gt;(optional)&lt;br&gt;CPU" style="rounded=0;whiteSpace=wrap;html=1;" parent="1" vertex="1">
          <mxGeometry x="320" y="500" width="120" height="100" as="geometry" />
        </mxCell>
        <mxCell id="OTOQXLl6I3eSlEA0uDQ9-1" value="path:str&lt;br&gt;leather_id: int64&lt;br&gt;transform_matrix: array" style="shape=parallelogram;perimeter=parallelogramPerimeter;whiteSpace=wrap;html=1;fixedSize=1;align=center;" parent="1" vertex="1">
          <mxGeometry x="120" y="-210" width="180" height="60" as="geometry" />
        </mxCell>
        <mxCell id="OTOQXLl6I3eSlEA0uDQ9-2" value="sm_test/L_ID_{leather_id}_{type}_{color}.png" style="text;html=1;align=left;verticalAlign=middle;resizable=0;points=[];autosize=1;strokeColor=none;fillColor=none;" parent="1" vertex="1">
          <mxGeometry x="300" y="-50" width="260" height="30" as="geometry" />
        </mxCell>
        <mxCell id="OTOQXLl6I3eSlEA0uDQ9-6" style="edgeStyle=orthogonalEdgeStyle;rounded=0;orthogonalLoop=1;jettySize=auto;html=1;exitX=0.5;exitY=1;exitDx=0;exitDy=0;" parent="1" source="OTOQXLl6I3eSlEA0uDQ9-4" target="0WyTZ84uX_8WJwjYoFbz-1" edge="1">
          <mxGeometry relative="1" as="geometry" />
        </mxCell>
        <mxCell id="OTOQXLl6I3eSlEA0uDQ9-4" value="Copy image to local folder" style="shape=process;whiteSpace=wrap;html=1;backgroundOutline=1;" parent="1" vertex="1">
          <mxGeometry x="120" y="-60" width="160" height="50" as="geometry" />
        </mxCell>
        <mxCell id="OTOQXLl6I3eSlEA0uDQ9-5" style="edgeStyle=orthogonalEdgeStyle;rounded=0;orthogonalLoop=1;jettySize=auto;html=1;exitX=0.5;exitY=1;exitDx=0;exitDy=0;entryX=0.438;entryY=0.039;entryDx=0;entryDy=0;entryPerimeter=0;" parent="1" source="0WyTZ84uX_8WJwjYoFbz-34" target="OTOQXLl6I3eSlEA0uDQ9-4" edge="1">
          <mxGeometry relative="1" as="geometry" />
        </mxCell>
        <mxCell id="OTOQXLl6I3eSlEA0uDQ9-7" value="detect_anomalies_3010_mp2.py" style="text;whiteSpace=wrap;html=1;" parent="1" vertex="1">
          <mxGeometry x="455" y="500" width="195" height="40" as="geometry" />
        </mxCell>
        <mxCell id="OTOQXLl6I3eSlEA0uDQ9-8" value="anom_class_v2_opt_2310.py" style="text;html=1;strokeColor=none;fillColor=none;align=center;verticalAlign=middle;whiteSpace=wrap;rounded=0;" parent="1" vertex="1">
          <mxGeometry x="515" y="555" width="60" height="30" as="geometry" />
        </mxCell>
        <mxCell id="OTOQXLl6I3eSlEA0uDQ9-10" value="&lt;div style=&quot;text-align: center;&quot;&gt;&lt;span style=&quot;background-color: initial;&quot;&gt;&lt;b&gt;Masks:&lt;/b&gt;&lt;/span&gt;&lt;/div&gt;vor_{hide_name}.png&lt;br&gt;strong_lines_{hide_name}.png&lt;br&gt;med_lines_{hide_name}.png&lt;br&gt;dots_{hide_name}.png&lt;br&gt;filt_{hide_name}.png" style="text;html=1;strokeColor=none;fillColor=none;align=left;verticalAlign=middle;whiteSpace=wrap;rounded=0;" parent="1" vertex="1">
          <mxGeometry x="690" y="480" width="148" height="50" as="geometry" />
        </mxCell>
        <mxCell id="OTOQXLl6I3eSlEA0uDQ9-11" value="{hide_name}.json" style="text;whiteSpace=wrap;html=1;" parent="1" vertex="1">
          <mxGeometry x="690" y="555" width="160" height="30" as="geometry" />
        </mxCell>
        <mxCell id="OTOQXLl6I3eSlEA0uDQ9-12" value="utils_server/detect_zones" style="text;html=1;strokeColor=none;fillColor=none;align=center;verticalAlign=middle;whiteSpace=wrap;rounded=0;" parent="1" vertex="1">
          <mxGeometry x="495" y="850" width="60" height="30" as="geometry" />
        </mxCell>
        <mxCell id="OTOQXLl6I3eSlEA0uDQ9-13" value="utils_server/rm_module_2" style="text;html=1;strokeColor=none;fillColor=none;align=center;verticalAlign=middle;whiteSpace=wrap;rounded=0;" parent="1" vertex="1">
          <mxGeometry x="495" y="930" width="60" height="30" as="geometry" />
        </mxCell>
        <mxCell id="OTOQXLl6I3eSlEA0uDQ9-14" value="def_class_module/yolov5" style="text;html=1;strokeColor=none;fillColor=none;align=center;verticalAlign=middle;whiteSpace=wrap;rounded=0;" parent="1" vertex="1">
          <mxGeometry x="495" y="770" width="60" height="30" as="geometry" />
        </mxCell>
        <mxCell id="OTOQXLl6I3eSlEA0uDQ9-15" value="&lt;b&gt;PROD (CNN):&lt;/b&gt;&amp;nbsp;https://gitlab.vit.belwest.com/m.zarechnev/defect_detection_local_deployment/-/tree/defect-local-V2-prod" style="text;html=1;strokeColor=none;fillColor=none;align=left;verticalAlign=middle;whiteSpace=wrap;rounded=0;" parent="1" vertex="1">
          <mxGeometry x="120" y="-360" width="650" height="30" as="geometry" />
        </mxCell>
        <mxCell id="OTOQXLl6I3eSlEA0uDQ9-17" value="&lt;b&gt;DEV (CNN):&lt;/b&gt;&amp;nbsp;https://gitlab.vit.belwest.com/m.zarechnev/defect_detection_local_deployment/-/tree/defect-local-V2" style="text;html=1;strokeColor=none;fillColor=none;align=left;verticalAlign=middle;whiteSpace=wrap;rounded=0;" parent="1" vertex="1">
          <mxGeometry x="120" y="-330" width="660" height="30" as="geometry" />
        </mxCell>
        <mxCell id="OTOQXLl6I3eSlEA0uDQ9-18" value="&lt;b&gt;DEV (CV):&lt;/b&gt; https://gitlab.vit.belwest.com/m.zarechnev/defect_detection_local_deployment/-/tree/feature/CV-without_Milano" style="text;html=1;strokeColor=none;fillColor=none;align=left;verticalAlign=middle;whiteSpace=wrap;rounded=0;" parent="1" vertex="1">
          <mxGeometry x="120" y="-300" width="680" height="30" as="geometry" />
        </mxCell>
        <mxCell id="-g3z2LH8xOCg4xsQymAO-1" value="&lt;b&gt;VQI.LEATHER CONTROLLER&lt;/b&gt;" style="shape=process;whiteSpace=wrap;html=1;backgroundOutline=1;fillColor=#f8cecc;strokeColor=#b85450;" vertex="1" parent="1">
          <mxGeometry x="50" y="1250" width="150" height="680" as="geometry" />
        </mxCell>
        <mxCell id="-g3z2LH8xOCg4xsQymAO-2" value="&lt;b&gt;VQI.LEATHER DEFECTS_AUTO_DETECT&lt;br&gt;MODULE&lt;br&gt;INSTANCE_1&lt;br&gt;&lt;/b&gt;" style="shape=process;whiteSpace=wrap;html=1;backgroundOutline=1;fillColor=#ffe6cc;strokeColor=#d79b00;" vertex="1" parent="1">
          <mxGeometry x="330" y="1140" width="230" height="100" as="geometry" />
        </mxCell>
        <mxCell id="-g3z2LH8xOCg4xsQymAO-4" value="Request for processing" style="text;html=1;strokeColor=none;fillColor=none;align=center;verticalAlign=middle;whiteSpace=wrap;rounded=0;" vertex="1" parent="1">
          <mxGeometry x="250" y="1160" width="80" height="30" as="geometry" />
        </mxCell>
        <mxCell id="-g3z2LH8xOCg4xsQymAO-6" value="Submitting of result" style="text;html=1;strokeColor=none;fillColor=none;align=center;verticalAlign=middle;whiteSpace=wrap;rounded=0;" vertex="1" parent="1">
          <mxGeometry x="250" y="1190" width="80" height="30" as="geometry" />
        </mxCell>
        <mxCell id="-g3z2LH8xOCg4xsQymAO-7" style="edgeStyle=orthogonalEdgeStyle;rounded=0;orthogonalLoop=1;jettySize=auto;html=1;exitX=1;exitY=0.25;exitDx=0;exitDy=0;entryX=0;entryY=0.25;entryDx=0;entryDy=0;" edge="1" parent="1" source="-g3z2LH8xOCg4xsQymAO-8" target="-g3z2LH8xOCg4xsQymAO-14">
          <mxGeometry relative="1" as="geometry" />
        </mxCell>
        <mxCell id="-g3z2LH8xOCg4xsQymAO-8" value="&lt;b&gt;VQI.LEATHER MANUAL_CORRECTION&lt;br&gt;MODULE*&lt;br&gt;&lt;br&gt;INSTANCE_1&lt;br&gt;&lt;/b&gt;" style="shape=process;whiteSpace=wrap;html=1;backgroundOutline=1;fillColor=#ffe6cc;strokeColor=#d79b00;" vertex="1" parent="1">
          <mxGeometry x="330" y="1410" width="230" height="100" as="geometry" />
        </mxCell>
        <mxCell id="-g3z2LH8xOCg4xsQymAO-9" value="" style="endArrow=classic;html=1;rounded=0;" edge="1" parent="1">
          <mxGeometry width="50" height="50" relative="1" as="geometry">
            <mxPoint x="200" y="1428" as="sourcePoint" />
            <mxPoint x="330" y="1428" as="targetPoint" />
          </mxGeometry>
        </mxCell>
        <mxCell id="-g3z2LH8xOCg4xsQymAO-10" value="Request for processing" style="text;html=1;strokeColor=none;fillColor=none;align=center;verticalAlign=middle;whiteSpace=wrap;rounded=0;" vertex="1" parent="1">
          <mxGeometry x="220" y="1398" width="80" height="30" as="geometry" />
        </mxCell>
        <mxCell id="-g3z2LH8xOCg4xsQymAO-11" value="" style="endArrow=classic;html=1;rounded=0;entryX=1;entryY=0.25;entryDx=0;entryDy=0;exitX=0;exitY=0.831;exitDx=0;exitDy=0;exitPerimeter=0;" edge="1" parent="1">
          <mxGeometry width="50" height="50" relative="1" as="geometry">
            <mxPoint x="330" y="1491.1" as="sourcePoint" />
            <mxPoint x="200" y="1490.5" as="targetPoint" />
          </mxGeometry>
        </mxCell>
        <mxCell id="-g3z2LH8xOCg4xsQymAO-12" value="Submitting of result" style="text;html=1;strokeColor=none;fillColor=none;align=center;verticalAlign=middle;whiteSpace=wrap;rounded=0;" vertex="1" parent="1">
          <mxGeometry x="230" y="1458" width="80" height="30" as="geometry" />
        </mxCell>
        <mxCell id="-g3z2LH8xOCg4xsQymAO-13" style="edgeStyle=orthogonalEdgeStyle;rounded=0;orthogonalLoop=1;jettySize=auto;html=1;exitX=0;exitY=0.75;exitDx=0;exitDy=0;entryX=1;entryY=0.551;entryDx=0;entryDy=0;entryPerimeter=0;" edge="1" parent="1" source="-g3z2LH8xOCg4xsQymAO-14" target="-g3z2LH8xOCg4xsQymAO-8">
          <mxGeometry relative="1" as="geometry" />
        </mxCell>
        <mxCell id="-g3z2LH8xOCg4xsQymAO-14" value="LabelMe" style="rounded=1;whiteSpace=wrap;html=1;fillColor=#ffff88;strokeColor=#36393d;" vertex="1" parent="1">
          <mxGeometry x="590" y="1420" width="120" height="60" as="geometry" />
        </mxCell>
        <mxCell id="-g3z2LH8xOCg4xsQymAO-15" value="" style="endArrow=classic;html=1;rounded=0;" edge="1" parent="1">
          <mxGeometry width="50" height="50" relative="1" as="geometry">
            <mxPoint x="-79" y="1280" as="sourcePoint" />
            <mxPoint x="51" y="1280" as="targetPoint" />
          </mxGeometry>
        </mxCell>
        <mxCell id="-g3z2LH8xOCg4xsQymAO-16" value="Request for processing" style="text;html=1;strokeColor=none;fillColor=none;align=center;verticalAlign=middle;whiteSpace=wrap;rounded=0;" vertex="1" parent="1">
          <mxGeometry x="-59" y="1250" width="80" height="30" as="geometry" />
        </mxCell>
        <mxCell id="-g3z2LH8xOCg4xsQymAO-17" value="" style="endArrow=classic;html=1;rounded=0;" edge="1" parent="1">
          <mxGeometry width="50" height="50" relative="1" as="geometry">
            <mxPoint x="-80.00000000000023" y="1626" as="sourcePoint" />
            <mxPoint x="49.99999999999977" y="1626" as="targetPoint" />
          </mxGeometry>
        </mxCell>
        <mxCell id="-g3z2LH8xOCg4xsQymAO-18" value="Request for results obtaining" style="text;html=1;strokeColor=none;fillColor=none;align=center;verticalAlign=middle;whiteSpace=wrap;rounded=0;" vertex="1" parent="1">
          <mxGeometry x="-60" y="1590" width="80" height="30" as="geometry" />
        </mxCell>
        <mxCell id="-g3z2LH8xOCg4xsQymAO-19" style="edgeStyle=orthogonalEdgeStyle;rounded=0;orthogonalLoop=1;jettySize=auto;html=1;exitX=1;exitY=0.25;exitDx=0;exitDy=0;entryX=0;entryY=0.25;entryDx=0;entryDy=0;" edge="1" parent="1" source="-g3z2LH8xOCg4xsQymAO-20" target="-g3z2LH8xOCg4xsQymAO-26">
          <mxGeometry relative="1" as="geometry" />
        </mxCell>
        <mxCell id="-g3z2LH8xOCg4xsQymAO-20" value="&lt;b&gt;VQI.LEATHER MANUAL_CORRECTION&lt;br&gt;MODULE*&lt;br&gt;&lt;br&gt;&lt;/b&gt;&lt;b&gt;INSTANCE_N&lt;/b&gt;&lt;b&gt;&lt;br&gt;&lt;/b&gt;" style="shape=process;whiteSpace=wrap;html=1;backgroundOutline=1;fillColor=#ffe6cc;strokeColor=#d79b00;" vertex="1" parent="1">
          <mxGeometry x="330" y="1540" width="230" height="100" as="geometry" />
        </mxCell>
        <mxCell id="-g3z2LH8xOCg4xsQymAO-21" value="" style="endArrow=classic;html=1;rounded=0;" edge="1" parent="1">
          <mxGeometry width="50" height="50" relative="1" as="geometry">
            <mxPoint x="200" y="1558" as="sourcePoint" />
            <mxPoint x="330" y="1558" as="targetPoint" />
          </mxGeometry>
        </mxCell>
        <mxCell id="-g3z2LH8xOCg4xsQymAO-22" value="Request for processing" style="text;html=1;strokeColor=none;fillColor=none;align=center;verticalAlign=middle;whiteSpace=wrap;rounded=0;" vertex="1" parent="1">
          <mxGeometry x="220" y="1528" width="80" height="30" as="geometry" />
        </mxCell>
        <mxCell id="-g3z2LH8xOCg4xsQymAO-23" value="" style="endArrow=classic;html=1;rounded=0;entryX=1;entryY=0.25;entryDx=0;entryDy=0;exitX=0;exitY=0.831;exitDx=0;exitDy=0;exitPerimeter=0;" edge="1" parent="1">
          <mxGeometry width="50" height="50" relative="1" as="geometry">
            <mxPoint x="330" y="1621.1" as="sourcePoint" />
            <mxPoint x="200" y="1620.5" as="targetPoint" />
          </mxGeometry>
        </mxCell>
        <mxCell id="-g3z2LH8xOCg4xsQymAO-24" value="Submitting of result" style="text;html=1;strokeColor=none;fillColor=none;align=center;verticalAlign=middle;whiteSpace=wrap;rounded=0;" vertex="1" parent="1">
          <mxGeometry x="230" y="1588" width="80" height="30" as="geometry" />
        </mxCell>
        <mxCell id="-g3z2LH8xOCg4xsQymAO-25" style="edgeStyle=orthogonalEdgeStyle;rounded=0;orthogonalLoop=1;jettySize=auto;html=1;exitX=0;exitY=0.75;exitDx=0;exitDy=0;entryX=1;entryY=0.551;entryDx=0;entryDy=0;entryPerimeter=0;" edge="1" parent="1" source="-g3z2LH8xOCg4xsQymAO-26" target="-g3z2LH8xOCg4xsQymAO-20">
          <mxGeometry relative="1" as="geometry" />
        </mxCell>
        <mxCell id="-g3z2LH8xOCg4xsQymAO-26" value="LabelMe" style="rounded=1;whiteSpace=wrap;html=1;fillColor=#ffff88;strokeColor=#36393d;" vertex="1" parent="1">
          <mxGeometry x="590" y="1550" width="120" height="60" as="geometry" />
        </mxCell>
        <mxCell id="-g3z2LH8xOCg4xsQymAO-27" value="..." style="text;html=1;align=center;verticalAlign=middle;resizable=0;points=[];autosize=1;strokeColor=none;fillColor=none;fontSize=40;" vertex="1" parent="1">
          <mxGeometry x="420" y="1488" width="50" height="50" as="geometry" />
        </mxCell>
        <mxCell id="-g3z2LH8xOCg4xsQymAO-35" value="" style="group" vertex="1" connectable="0" parent="1">
          <mxGeometry x="70" y="1270" width="100" height="20" as="geometry" />
        </mxCell>
        <mxCell id="-g3z2LH8xOCg4xsQymAO-29" value="" style="rounded=0;whiteSpace=wrap;html=1;" vertex="1" parent="-g3z2LH8xOCg4xsQymAO-35">
          <mxGeometry width="20" height="20" as="geometry" />
        </mxCell>
        <mxCell id="-g3z2LH8xOCg4xsQymAO-31" value="" style="rounded=0;whiteSpace=wrap;html=1;" vertex="1" parent="-g3z2LH8xOCg4xsQymAO-35">
          <mxGeometry x="20" width="20" height="20" as="geometry" />
        </mxCell>
        <mxCell id="-g3z2LH8xOCg4xsQymAO-32" value="" style="rounded=0;whiteSpace=wrap;html=1;" vertex="1" parent="-g3z2LH8xOCg4xsQymAO-35">
          <mxGeometry x="40" width="20" height="20" as="geometry" />
        </mxCell>
        <mxCell id="-g3z2LH8xOCg4xsQymAO-33" value="" style="rounded=0;whiteSpace=wrap;html=1;" vertex="1" parent="-g3z2LH8xOCg4xsQymAO-35">
          <mxGeometry x="60" width="20" height="20" as="geometry" />
        </mxCell>
        <mxCell id="-g3z2LH8xOCg4xsQymAO-34" value="" style="rounded=0;whiteSpace=wrap;html=1;" vertex="1" parent="-g3z2LH8xOCg4xsQymAO-35">
          <mxGeometry x="80" width="20" height="20" as="geometry" />
        </mxCell>
        <mxCell id="-g3z2LH8xOCg4xsQymAO-36" value="Requests queue" style="text;html=1;strokeColor=none;fillColor=none;align=center;verticalAlign=middle;whiteSpace=wrap;rounded=0;" vertex="1" parent="1">
          <mxGeometry x="72.5" y="1290" width="95" height="20" as="geometry" />
        </mxCell>
        <mxCell id="-g3z2LH8xOCg4xsQymAO-37" value="&lt;b&gt;VQI.LEATHER DEFECTS_AUTO_DETECT&lt;br&gt;MODULE&lt;br&gt;IMSTANCE_N&lt;br&gt;&lt;/b&gt;" style="shape=process;whiteSpace=wrap;html=1;backgroundOutline=1;fillColor=#eeeeee;strokeColor=#36393d;" vertex="1" parent="1">
          <mxGeometry x="330" y="1270" width="230" height="100" as="geometry" />
        </mxCell>
        <mxCell id="-g3z2LH8xOCg4xsQymAO-38" value="..." style="text;html=1;strokeColor=none;fillColor=none;align=center;verticalAlign=middle;whiteSpace=wrap;rounded=0;" vertex="1" parent="1">
          <mxGeometry x="414" y="1240" width="60" height="30" as="geometry" />
        </mxCell>
        <mxCell id="-g3z2LH8xOCg4xsQymAO-40" style="edgeStyle=orthogonalEdgeStyle;rounded=0;orthogonalLoop=1;jettySize=auto;html=1;exitX=0;exitY=0.5;exitDx=0;exitDy=0;entryX=0.999;entryY=0.017;entryDx=0;entryDy=0;entryPerimeter=0;startArrow=classic;startFill=1;endArrow=classic;endFill=1;" edge="1" parent="1" source="-g3z2LH8xOCg4xsQymAO-2" target="-g3z2LH8xOCg4xsQymAO-1">
          <mxGeometry relative="1" as="geometry">
            <mxPoint x="330" y="1166" as="sourcePoint" />
            <mxPoint x="200.29999999999995" y="1264.1999999999998" as="targetPoint" />
            <Array as="points">
              <mxPoint x="250" y="1190" />
              <mxPoint x="250" y="1261" />
              <mxPoint x="200" y="1261" />
            </Array>
          </mxGeometry>
        </mxCell>
        <mxCell id="-g3z2LH8xOCg4xsQymAO-42" style="edgeStyle=orthogonalEdgeStyle;rounded=0;orthogonalLoop=1;jettySize=auto;html=1;exitX=0;exitY=0.5;exitDx=0;exitDy=0;dashed=1;endArrow=none;endFill=0;startArrow=classic;startFill=1;" edge="1" parent="1" source="-g3z2LH8xOCg4xsQymAO-37">
          <mxGeometry relative="1" as="geometry">
            <mxPoint x="250" y="1260" as="targetPoint" />
            <Array as="points">
              <mxPoint x="250" y="1320" />
              <mxPoint x="250" y="1262" />
            </Array>
          </mxGeometry>
        </mxCell>
        <mxCell id="-g3z2LH8xOCg4xsQymAO-43" value="Request for processing" style="text;html=1;strokeColor=none;fillColor=none;align=center;verticalAlign=middle;whiteSpace=wrap;rounded=0;" vertex="1" parent="1">
          <mxGeometry x="250" y="1285" width="80" height="30" as="geometry" />
        </mxCell>
        <mxCell id="-g3z2LH8xOCg4xsQymAO-44" value="Submitting of result" style="text;html=1;strokeColor=none;fillColor=none;align=center;verticalAlign=middle;whiteSpace=wrap;rounded=0;" vertex="1" parent="1">
          <mxGeometry x="250" y="1320" width="80" height="30" as="geometry" />
        </mxCell>
      </root>
    </mxGraphModel>
  </diagram>
</mxfile>
